<mxfile host="app.diagrams.net" modified="2024-02-26T10:33:37.602Z" agent="Mozilla/5.0 (X11; Linux x86_64) AppleWebKit/537.36 (KHTML, like Gecko) Chrome/122.0.0.0 Safari/537.36" version="23.1.6" etag="DMbv8n4uYnrjtSzHseOT" type="github">
  <diagram name="Page-1" id="ESfYeF21R4jo38uJ4LJI">
    <mxGraphModel>
      <root>
        <mxCell id="0" />
        <mxCell id="1" parent="0" />
      </root>
    </mxGraphModel>
  </diagram>
</mxfile>
